<?xml version="1.0" standalone="no"?>
<!DOCTYPE svg PUBLIC "-//W3C//DTD SVG 20010904//EN"
 "http://www.w3.org/TR/2001/REC-SVG-20010904/DTD/svg10.dtd">
<svg version="1.0" xmlns="http://www.w3.org/2000/svg"
 width="418.000000pt" height="205.000000pt" viewBox="0 0 418.000000 205.000000"
 preserveAspectRatio="xMidYMid meet">

<g transform="translate(0.000000,205.000000) scale(0.100000,-0.100000)"
fill="#000000" stroke="none">
<path d="M1990 1693 c-8 -3 -73 -39 -145 -78 -71 -39 -166 -91 -210 -115 -147
-79 -660 -362 -693 -382 -38 -23 -72 -84 -72 -128 0 -17 9 -48 20 -70 23 -45
21 -44 435 -270 154 -84 366 -201 470 -259 177 -98 194 -105 245 -105 51 0 68
7 245 105 105 58 316 175 470 259 414 226 412 225 435 270 26 51 25 95 -3 144
-25 44 -26 45 -717 423 -302 166 -384 206 -420 209 -25 2 -52 1 -60 -3z m153
-49 c61 -31 220 -118 932 -509 92 -51 110 -75 110 -145 0 -84 -7 -91 -230
-210 -44 -24 -229 -126 -412 -226 -412 -227 -465 -254 -503 -254 -39 0 -88 25
-563 287 -216 118 -424 232 -462 254 -103 55 -120 77 -120 150 0 52 3 62 30
88 17 16 62 46 100 67 39 20 225 123 415 227 499 275 560 307 598 307 18 0 65
-16 105 -36z"/>
<path d="M1976 1635 c-16 -8 -171 -94 -345 -189 -174 -96 -395 -217 -491 -269
-182 -99 -220 -131 -220 -186 0 -58 31 -85 217 -186 98 -54 329 -181 513 -283
321 -178 337 -186 390 -186 52 0 69 8 345 161 160 88 389 215 510 281 230 125
265 154 265 212 0 59 -35 86 -275 217 -126 69 -356 195 -510 280 -300 167
-339 181 -399 148z m347 -163 c139 -76 318 -174 399 -218 143 -76 167 -94 131
-94 -35 0 3 -19 45 -22 60 -4 57 -22 -6 -29 -29 -4 -55 -9 -58 -12 -3 -2 32
-8 77 -12 97 -8 89 -20 -20 -31 -72 -7 -74 -8 -36 -15 22 -4 59 -8 83 -8 23
-1 42 -5 42 -10 0 -9 -58 -21 -108 -21 -20 0 -31 -4 -27 -10 3 -5 21 -10 39
-10 88 0 127 -29 43 -31 -23 -1 -55 -5 -72 -8 -24 -6 -15 -9 48 -15 42 -5 79
-12 82 -16 3 -5 -34 -12 -82 -16 -67 -6 -81 -9 -58 -15 17 -4 47 -7 68 -8 56
-2 42 -25 -16 -29 -26 -2 -47 -7 -47 -13 0 -5 5 -9 10 -9 23 0 7 -17 -32 -37
-24 -11 -83 -43 -133 -70 -453 -253 -625 -343 -655 -343 -30 0 -183 80 -655
343 -49 27 -108 59 -130 70 -52 26 -53 27 -30 40 17 10 13 13 -34 17 -65 6
-83 29 -24 31 21 1 52 4 68 8 23 6 9 9 -58 15 -48 4 -85 11 -82 16 3 4 40 11
82 15 58 6 72 10 53 16 -14 4 -46 7 -72 8 -88 2 -53 31 38 31 18 0 36 5 39 10
4 6 -7 10 -27 10 -50 0 -108 12 -108 21 0 5 19 9 43 10 23 0 60 4 82 8 38 7
36 8 -36 15 -109 11 -117 23 -20 31 45 4 80 10 77 12 -3 3 -29 8 -58 12 -63 7
-66 25 -6 29 42 3 80 22 45 22 -31 0 -18 15 41 45 123 66 277 149 502 274 165
91 245 130 268 131 25 0 100 -37 285 -138z"/>
<path d="M1400 1078 c-36 -140 -44 -165 -56 -185 -19 -31 -18 -33 14 -33 34 0
45 9 33 24 -5 6 -7 23 -4 39 5 24 10 27 44 27 33 0 40 -4 45 -24 3 -14 3 -34
-1 -45 -5 -18 -2 -21 23 -21 36 0 46 10 27 24 -8 6 -27 61 -42 121 -24 95 -31
110 -50 113 -18 3 -24 -4 -33 -40z m53 -65 c6 -31 5 -33 -23 -33 -28 0 -30 2
-24 28 4 15 11 38 16 52 10 24 10 24 18 5 4 -11 10 -35 13 -52z"/>
<path d="M1570 1111 c0 -6 5 -13 10 -16 6 -3 10 -50 10 -105 0 -79 -3 -99 -16
-104 -23 -9 -7 -26 26 -26 32 0 48 15 25 24 -12 4 -15 28 -15 121 0 108 -1
115 -20 115 -11 0 -20 -4 -20 -9z"/>
<path d="M2207 1093 c-4 -3 -7 -16 -7 -28 0 -11 -6 -27 -12 -34 -10 -11 -10
-14 0 -18 7 -3 12 -25 12 -59 0 -64 13 -94 40 -94 23 0 27 18 5 26 -23 9 -21
110 3 123 16 10 16 12 0 25 -10 7 -18 25 -18 40 0 25 -10 33 -23 19z"/>
<path d="M1667 1033 c-4 -3 -1 -13 7 -22 8 -9 22 -45 32 -79 27 -98 54 -97 80
4 9 32 22 66 31 76 18 21 2 32 -33 24 -19 -5 -23 -10 -15 -19 7 -9 5 -28 -5
-65 -9 -29 -17 -52 -19 -52 -2 0 -10 23 -19 52 -10 35 -12 56 -5 64 14 17 -37
34 -54 17z"/>
<path d="M1861 1031 c-8 -5 -11 -16 -7 -27 5 -13 9 -15 18 -6 17 17 68 15 68
-2 0 -8 -22 -28 -50 -45 -82 -50 -65 -91 38 -91 57 0 63 2 57 18 -5 9 -10 46
-13 82 -2 36 -9 68 -16 72 -15 11 -78 10 -95 -1z m77 -113 c-3 -35 -29 -48
-58 -28 -13 9 -10 14 15 35 40 33 47 31 43 -7z"/>
<path d="M2048 1033 c-12 -3 -18 -14 -18 -33 0 -23 9 -35 46 -60 25 -18 43
-37 41 -43 -5 -17 -46 -17 -62 -1 -20 20 -27 17 -23 -8 2 -19 10 -24 46 -26
85 -6 96 39 22 92 -28 20 -48 41 -45 46 10 16 65 12 65 -5 0 -8 5 -15 11 -15
6 0 9 12 7 28 -3 23 -8 27 -38 29 -19 0 -43 -1 -52 -4z"/>
<path d="M2308 1029 c-15 -8 -18 -24 -18 -84 0 -70 1 -75 23 -81 13 -3 41 -4
63 -2 l39 3 3 75 c2 62 0 77 -14 87 -21 15 -72 16 -96 2z m80 -81 c-3 -63 -3
-63 -33 -63 -30 0 -30 0 -33 63 l-3 62 36 0 36 0 -3 -62z"/>
<path d="M2455 1031 c-3 -5 -1 -12 5 -16 5 -3 10 -33 10 -65 0 -32 -5 -62 -10
-65 -16 -10 -1 -25 25 -25 26 0 41 15 25 25 -5 3 -10 26 -10 50 0 35 5 47 21
56 15 8 24 8 32 0 18 -18 27 -13 27 14 0 19 -5 25 -23 25 -13 0 -29 -6 -36
-12 -10 -11 -14 -10 -22 5 -11 18 -34 23 -44 8z"/>
<path d="M2636 1027 c-14 -10 -16 -25 -14 -87 l3 -75 55 0 c46 0 55 3 58 19 3
15 0 17 -14 11 -45 -18 -91 -11 -76 11 4 6 26 23 50 38 34 21 42 32 42 55 0
17 -6 31 -16 35 -26 10 -69 7 -88 -7z m81 -32 c3 -11 -47 -45 -66 -45 -12 0
-15 42 -4 54 10 10 66 3 70 -9z"/>
</g>
</svg>
